<svg width="25" height="24" viewBox="0 0 25 24" fill="none" xmlns="http://www.w3.org/2000/svg">
<path d="M16.6702 3V7M8.67017 3V7M4.67017 11H20.6702M4.67017 7C4.67017 6.46957 4.88088 5.96086 5.25595 5.58579C5.63103 5.21071 6.13973 5 6.67017 5H18.6702C19.2006 5 19.7093 5.21071 20.0844 5.58579C20.4595 5.96086 20.6702 6.46957 20.6702 7V19C20.6702 19.5304 20.4595 20.0391 20.0844 20.4142C19.7093 20.7893 19.2006 21 18.6702 21H6.67017C6.13973 21 5.63103 20.7893 5.25595 20.4142C4.88088 20.0391 4.67017 19.5304 4.67017 19V7Z" stroke="#00A676" stroke-width="1.74067" stroke-linecap="round" stroke-linejoin="round"/>
<path d="M8.67017 15H10.6702V17H8.67017V15Z" stroke="#00A676" stroke-width="1.74067" stroke-linecap="round" stroke-linejoin="round"/>
</svg>
