<?xml version="1.0" encoding="UTF-8"?>
<svg id="Layer_2" data-name="Layer 2" xmlns="http://www.w3.org/2000/svg" viewBox="0 0 173.81 45.29">
  <defs>
    <style>
      .cls-1 {
        fill: #00a676;
      }
    </style>
  </defs>
  <g id="Layer_1-2" data-name="Layer 1">
    <g>
      <path class="cls-1" d="m109.27,26.75l-17.6-.48c-.49-.01-.65-.66-.23-.9l22.18-12.66L135.76.07c.43-.24.9.23.66.66l-12.64,22.14-12.66,22.18c-.24.42-.89.26-.9-.23l-.48-17.6c0-.26-.21-.46-.47-.47Z"/>
      <path class="cls-1" d="m104.73,31.25l-12.51-2.57c-.28-.06-.54-.21-.71-.44-.09-.13-.13-.23-.05-.23l7.21.37,8.4.38c.21,0,.37.17.38.38l.38,8.4.37,7.54c0,.08-.1.04-.23-.05-.23-.17-.38-.43-.44-.71l-2.57-12.84c-.05-.08-.15-.18-.23-.23Z"/>
    </g>
    <path class="cls-1" d="m.34,35.11h4.96c.19,0,.34-.15.34-.34v-7.49c0-.19.15-.34.34-.34h5.91c.19,0,.34-.15.34-.34v-4.39c0-.19-.15-.34-.34-.34h-5.91c-.19,0-.34-.15-.34-.34v-2.37c0-.19.15-.34.34-.34h6.45c.19,0,.34-.15.34-.34v-4.39c0-.19-.15-.34-.34-.34H.34c-.19,0-.34.15-.34.34v20.67c0,.19.15.34.34.34Z"/>
    <path class="cls-1" d="m26.88,13.48c-3.54-.38-6.58.68-8.99,3.13-2.09,2.13-3.15,4.76-3.15,7.82s1.02,5.78,3.04,7.88c2.02,2.11,4.62,3.17,7.72,3.17s5.61-1.08,7.66-3.2c2.04-2.12,3.07-4.76,3.07-7.86,0-3.58-1.42-6.55-4.21-8.82-1.46-1.19-3.26-1.93-5.14-2.14Zm-6.14,10.95c0-1.54.43-2.88,1.27-3.97.82-1.07,1.96-1.59,3.49-1.59s2.68.52,3.48,1.59c.83,1.1,1.24,2.44,1.24,3.98s-.41,2.9-1.22,3.99c-.79,1.06-1.93,1.57-3.51,1.57-1.09,0-2.01-.27-2.74-.81-.75-.55-1.26-1.21-1.56-2-.31-.82-.46-1.74-.46-2.75Z"/>
    <path class="cls-1" d="m51.88,24.37c.81-1.09,1.22-2.46,1.22-4.06,0-2.08-.68-3.72-2.03-4.86-1.32-1.12-3.04-1.68-5.11-1.68h-7.44c-.19,0-.34.15-.34.34v20.67c0,.19.15.34.34.34h4.96c.19,0,.34-.15.34-.34v-5.75c0-.32.41-.46.6-.21l4.76,6.16c.06.08.16.13.27.13h6.32c.29,0,.44-.33.26-.55l-6.5-7.81c-.14-.17-.08-.41.12-.51.89-.45,1.64-1.08,2.22-1.87Zm-8.05-5.9h.04c.42,0,.77,0,1.06.02.26.01.57.07.91.16.31.08.55.19.73.33.17.13.32.34.45.61.13.28.2.63.2,1.04s-.07.77-.2,1.04c-.13.27-.28.48-.45.61-.17.14-.42.25-.73.33-.34.09-.65.14-.91.16-.29.02-.64.02-1.06.02h-.04v-4.33Z"/>
    <path class="cls-1" d="m77.77,25.19l-2.96-11.17c-.04-.15-.17-.25-.33-.25h-3.75c-.15,0-.29.1-.33.25l-2.96,11.17c-.09.34-.57.33-.65,0l-2.78-11.16c-.04-.15-.17-.26-.33-.26h-5.5c-.22,0-.39.21-.32.43l5.89,20.67c.04.14.17.24.32.24h5.4c.15,0,.28-.1.32-.24l2.48-8.71c.09-.33.56-.33.65,0l2.48,8.71c.04.14.17.24.32.24h5.37c.15,0,.28-.1.32-.24l5.89-20.67c.06-.22-.1-.43-.32-.43h-5.47c-.15,0-.29.11-.33.26l-2.78,11.16c-.08.34-.56.34-.65,0Z"/>
    <path class="cls-1" d="m150.63,24.37c.81-1.09,1.22-2.46,1.22-4.06,0-2.08-.68-3.72-2.03-4.86-1.32-1.12-3.04-1.68-5.11-1.68h-7.44c-.19,0-.34.15-.34.34v20.67c0,.19.15.34.34.34h4.96c.19,0,.34-.15.34-.34v-5.75c0-.32.41-.46.6-.21l4.76,6.16c.06.08.16.13.27.13h6.32c.29,0,.44-.33.26-.55l-6.5-7.81c-.14-.17-.08-.41.12-.51.89-.45,1.64-1.08,2.22-1.87Zm-4.66-3.74c0,.42-.07.77-.2,1.04-.13.27-.28.48-.45.61-.17.14-.42.25-.73.33-.35.09-.65.14-.91.16-.29.02-.64.02-1.06.02h-.04v-4.33h.04c.42,0,.77,0,1.06.02.26.01.57.07.92.16.31.08.55.19.73.33.17.13.32.34.45.61.13.28.2.63.2,1.04Z"/>
    <path class="cls-1" d="m170.65,16.81c-2.09-2.02-4.65-3.04-7.6-3.04h-6.06c-.19,0-.34.15-.34.34v20.67c0,.19.15.34.34.34h6.06c2.96,0,5.53-1.02,7.61-3.04,2.09-2.02,3.15-4.59,3.15-7.65s-1.06-5.6-3.16-7.62Zm-8.35,2.11h.21c1.58,0,2.83.51,3.81,1.57,1,1.07,1.48,2.37,1.48,3.97-.02,1.61-.51,2.91-1.5,3.97-.99,1.05-2.23,1.56-3.79,1.56h-.21v-11.06Z"/>
  </g>
</svg>