<?xml version="1.0" encoding="UTF-8"?>
<svg id="Layer_2" data-name="Layer 2" xmlns="http://www.w3.org/2000/svg" viewBox="0 0 207.66 215.48">
  <defs>
    <style>
      .cls-1 {
        fill: #00a676;
      }
    </style>
  </defs>
  <g id="Layer_1-2" data-name="Layer 1">
    <g>
      <path class="cls-1" d="m93.61,137.8l-73.74-2.01c-2.05-.06-2.73-2.77-.95-3.78l92.93-53.05,92.77-52.96c1.79-1.02,3.78.97,2.76,2.76l-52.96,92.77-53.05,92.93c-1.02,1.78-3.73,1.1-3.78-.95l-2.01-73.74c-.03-1.07-.89-1.94-1.97-1.97Z"/>
      <path class="cls-1" d="m74.6,156.64l-52.41-10.75c-1.19-.26-2.27-.88-2.98-1.83-.4-.54-.56-.98-.22-.96l30.19,1.55,35.21,1.59c.86.04,1.55.73,1.59,1.59l1.59,35.21,1.55,31.58c.02.34-.42.17-.96-.22-.96-.71-1.57-1.78-1.83-2.98l-10.75-53.81c-.2-.33-.64-.77-.98-.98Z"/>
    </g>
    <g>
      <path class="cls-1" d="m15.61,126.86l6.41-3.57c.24-.13.33-.44.19-.68l-5.39-9.67c-.13-.24-.05-.54.19-.68l7.63-4.25c.24-.13.33-.44.19-.68l-3.16-5.67c-.13-.24-.44-.33-.68-.19l-7.63,4.25c-.24.13-.54.05-.68-.19l-1.7-3.06c-.13-.24-.05-.54.19-.68l8.33-4.64c.24-.13.33-.44.19-.68l-3.16-5.67c-.13-.24-.44-.33-.68-.19L.26,99.3c-.24.13-.33.44-.19.68l14.87,26.69c.13.24.44.33.68.19Z"/>
      <path class="cls-1" d="m34.31,79.84c-4.85,2.05-8.01,5.6-9.36,10.51-1.17,4.25-.65,8.41,1.56,12.37,2.25,4.04,5.48,6.73,9.59,7.99,4.12,1.27,8.25.78,12.25-1.45s6.48-5.43,7.59-9.64c1.11-4.2.55-8.36-1.68-12.36-2.57-4.62-6.54-7.44-11.78-8.36-2.75-.48-5.61-.15-8.17.94Zm-.05,18.56c-1.11-1.99-1.52-4.02-1.22-6.04.29-1.97,1.39-3.47,3.36-4.56,1.99-1.11,3.84-1.26,5.64-.45,1.86.82,3.36,2.25,4.47,4.24s1.56,4.04,1.3,6.03c-.25,1.93-1.37,3.42-3.4,4.55-1.4.78-2.79,1.09-4.12.92-1.37-.18-2.5-.66-3.45-1.47-.99-.84-1.85-1.92-2.57-3.22Z"/>
      <path class="cls-1" d="m74.44,75.92c.26-1.99-.19-4.05-1.34-6.12-1.5-2.69-3.55-4.31-6.11-4.81-2.51-.49-5.14.01-7.81,1.5l-9.6,5.35c-.24.13-.33.44-.19.68l14.87,26.69c.13.24.44.33.68.19l6.41-3.57c.24-.13.33-.44.19-.68l-4.14-7.42c-.23-.42.19-.89.63-.7l10.58,4.53c.14.06.3.05.44-.02l8.16-4.55c.37-.21.33-.75-.06-.9l-14.01-5.4c-.3-.12-.4-.48-.22-.74.83-1.23,1.34-2.57,1.52-4.02Zm-14.64-1.83l.05-.03c.54-.3,1-.54,1.38-.73.35-.17.78-.32,1.29-.45.45-.12.85-.15,1.18-.1.31.05.65.21,1.02.47.37.26.71.67,1.01,1.2s.47,1.04.49,1.49c.03.45-.02.82-.14,1.11-.13.3-.36.62-.7.95-.38.36-.74.65-1.07.86-.36.23-.81.49-1.35.79l-.05.03-3.11-5.59Z"/>
      <path class="cls-1" d="m108.46,58.36l-11.86-12.3c-.16-.16-.4-.2-.6-.09l-4.85,2.7c-.2.11-.3.34-.24.56l4.21,16.55c.13.5-.49.84-.85.46l-11.62-12.41c-.16-.17-.41-.21-.61-.09l-7.1,3.95c-.29.16-.34.55-.11.79l22.47,22.46c.16.16.4.19.59.08l6.97-3.88c.19-.11.29-.33.24-.55l-3.06-13.04c-.11-.49.48-.82.84-.47l9.47,9.46c.16.16.4.19.59.08l6.94-3.87c.19-.11.29-.33.24-.55l-7.26-30.92c-.08-.32-.44-.48-.73-.32l-7.07,3.94c-.2.11-.3.34-.24.57l4.44,16.41c.13.5-.48.85-.84.48Z"/>
      <path class="cls-1" d="m165.92,24.72c.26-2-.19-4.05-1.34-6.12-1.5-2.69-3.55-4.31-6.11-4.81-2.51-.49-5.14.01-7.81,1.5l-9.6,5.35c-.24.13-.33.44-.19.68l14.87,26.69c.13.24.44.33.68.19l6.41-3.57c.24-.13.33-.44.19-.68l-4.14-7.42c-.23-.42.19-.89.63-.7l10.58,4.53c.14.06.3.05.44-.02l8.16-4.55c.37-.21.33-.75-.06-.9l-14.01-5.4c-.3-.12-.4-.48-.22-.74.83-1.23,1.34-2.57,1.52-4.02Zm-8.71-1.47c.3.54.47,1.04.49,1.49.03.45-.02.82-.14,1.11-.13.3-.37.62-.71.95-.38.36-.74.65-1.07.86-.36.23-.81.49-1.35.79l-.06.03-3.11-5.59.06-.03c.54-.3,1-.54,1.38-.73.35-.17.78-.32,1.3-.45.45-.12.85-.15,1.18-.1.31.05.65.21,1.02.47.37.26.71.67,1.01,1.2Z"/>
      <path class="cls-1" d="m186.33.56c-4.15-1.1-8.19-.58-11.99,1.54l-7.82,4.36c-.24.13-.33.44-.19.68l14.87,26.69c.13.24.44.33.68.19l7.82-4.36c3.83-2.13,6.4-5.29,7.64-9.4,1.24-4.11.76-8.2-1.43-12.14-2.19-3.92-5.4-6.47-9.57-7.57Zm-9.27,8.73l.28-.15c2.04-1.14,4.02-1.37,6.05-.72,2.05.66,3.61,1.99,4.77,4.06,1.14,2.09,1.44,4.12.91,6.2-.52,2.06-1.76,3.61-3.78,4.74l-.28.15-7.95-14.28Z"/>
      <path class="cls-1" d="m127,28.83l25.79,20.42c.2.16.18.48-.05.6l-5.96,3.39c-.13.08-.3.06-.42-.04l-4.71-3.96c-.12-.1-.28-.11-.42-.04l-9.89,5.63c-.13.08-.2.23-.18.38l1,6.07c.02.15-.05.3-.18.38l-5.96,3.39c-.22.13-.51-.01-.54-.27l-4.39-32.6c-.02-.15.05-.29.18-.37l5.3-3.01c.13-.07.29-.06.41.03Zm8.81,16.28c.22-.13.25-.44.05-.6l-7.11-5.84-.06.04,1.39,9.1c.04.25.32.39.54.26l5.2-2.96Z"/>
    </g>
  </g>
</svg>