<svg width="21" height="20" viewBox="0 0 21 20" fill="none" xmlns="http://www.w3.org/2000/svg">
<path d="M3.67017 10H1.67017L10.6702 1L19.6702 10H17.6702M3.67017 10V17C3.67017 17.5304 3.88088 18.0391 4.25595 18.4142C4.63103 18.7893 5.13973 19 5.67017 19H15.6702C16.2006 19 16.7093 18.7893 17.0844 18.4142C17.4595 18.0391 17.6702 17.5304 17.6702 17V10" stroke="#00A676" stroke-width="1.74067" stroke-linecap="round" stroke-linejoin="round"/>
<path d="M7.67017 19V13C7.67017 12.4696 7.88088 11.9609 8.25595 11.5858C8.63103 11.2107 9.13973 11 9.67017 11H11.6702C12.2006 11 12.7093 11.2107 13.0844 11.5858C13.4595 11.9609 13.6702 12.4696 13.6702 13V19" stroke="#00A676" stroke-width="1.74067" stroke-linecap="round" stroke-linejoin="round"/>
</svg>
