<svg width="25" height="24" viewBox="0 0 25 24" fill="none" xmlns="http://www.w3.org/2000/svg">
<path d="M19.6702 8C20.2006 8 20.7093 7.78929 21.0844 7.41421C21.4595 7.03914 21.6702 6.53043 21.6702 6C21.6702 5.46957 21.4595 4.96086 21.0844 4.58579C20.7093 4.21071 20.2006 4 19.6702 4H5.67017C5.13973 4 4.63103 4.21071 4.25595 4.58579C3.88088 4.96086 3.67017 5.46957 3.67017 6C3.67017 6.53043 3.88088 7.03914 4.25595 7.41421C4.63103 7.78929 5.13973 8 5.67017 8M19.6702 8H5.67017M19.6702 8V18C19.6702 18.5304 19.4595 19.0391 19.0844 19.4142C18.7093 19.7893 18.2006 20 17.6702 20H7.67017C7.13973 20 6.63103 19.7893 6.25595 19.4142C5.88088 19.0391 5.67017 18.5304 5.67017 18V8M10.6702 12H14.6702" stroke="#00A676" stroke-width="1.74067" stroke-linecap="round" stroke-linejoin="round"/>
</svg>
