<svg width="25" height="24" viewBox="0 0 25 24" fill="none" xmlns="http://www.w3.org/2000/svg">
<path d="M8.67017 12V12.01M12.6702 12V12.01M16.6702 12V12.01M3.67017 12C3.67017 13.1819 3.90296 14.3522 4.35525 15.4442C4.80754 16.5361 5.47048 17.5282 6.3062 18.364C7.14193 19.1997 8.13408 19.8626 9.22602 20.3149C10.3179 20.7672 11.4883 21 12.6702 21C13.8521 21 15.0224 20.7672 16.1143 20.3149C17.2062 19.8626 18.1984 19.1997 19.0341 18.364C19.8699 17.5282 20.5328 16.5361 20.9851 15.4442C21.4374 14.3522 21.6702 13.1819 21.6702 12C21.6702 10.8181 21.4374 9.64778 20.9851 8.55585C20.5328 7.46392 19.8699 6.47177 19.0341 5.63604C18.1984 4.80031 17.2062 4.13738 16.1143 3.68508C15.0224 3.23279 13.8521 3 12.6702 3C11.4883 3 10.3179 3.23279 9.22602 3.68508C8.13408 4.13738 7.14193 4.80031 6.3062 5.63604C5.47048 6.47177 4.80754 7.46392 4.35525 8.55585C3.90296 9.64778 3.67017 10.8181 3.67017 12Z" stroke="#00A676" stroke-width="1.74067" stroke-linecap="round" stroke-linejoin="round"/>
</svg>
