<svg width="25" height="24" viewBox="0 0 25 24" fill="none" xmlns="http://www.w3.org/2000/svg">
<path d="M3.67017 7C3.67017 6.46957 3.88088 5.96086 4.25595 5.58579C4.63103 5.21071 5.13973 5 5.67017 5H19.6702C20.2006 5 20.7093 5.21071 21.0844 5.58579C21.4595 5.96086 21.6702 6.46957 21.6702 7V17C21.6702 17.5304 21.4595 18.0391 21.0844 18.4142C20.7093 18.7893 20.2006 19 19.6702 19H5.67017C5.13973 19 4.63103 18.7893 4.25595 18.4142C3.88088 18.0391 3.67017 17.5304 3.67017 17V7Z" stroke="#00A676" stroke-width="1.74067" stroke-linecap="round" stroke-linejoin="round"/>
<path d="M3.67017 7L12.6702 13L21.6702 7" stroke="#00A676" stroke-width="1.74067" stroke-linecap="round" stroke-linejoin="round"/>
</svg>
