<svg width="48" height="48" viewBox="0 0 48 48" fill="none" xmlns="http://www.w3.org/2000/svg">
<g clip-path="url(#clip0_244_1370)">
<path d="M24 0C20.8615 0 18.4615 2.4 18.4615 5.53846V16.6154C18.4615 19.7538 20.8615 22.1538 24 22.1538H35.0769L42.4615 29.5385V22.1538C45.6 22.1538 48 19.7538 48 16.6154V5.53846C48 2.4 45.6 0 42.4615 0H24ZM31.7317 5.53846H34.9034L38.0197 16.6154H35.2505L34.4991 13.8462H31.7298L31.0394 16.6154H28.6154L31.7317 5.53846ZM33.2308 7.38462C33.0462 8.12308 32.8394 9.024 32.6529 9.57785L32.136 12H34.3274L33.8068 9.576C33.4394 9.024 33.2308 8.12308 33.2308 7.38462ZM5.53846 18.4615C2.4 18.4615 0 20.8615 0 24V35.0769C0 38.2154 2.4 40.6154 5.53846 40.6154V48L12.9231 40.6154H24C27.1385 40.6154 29.5385 38.2154 29.5385 35.0769V24H24C20.4923 24 17.712 21.6 16.7889 18.4615H5.53846ZM14.0197 23.8265C17.1582 23.8265 18.6351 26.4111 18.6351 29.3649C18.6351 31.9495 17.7471 33.5889 16.2702 34.3274C17.0086 34.6966 17.8837 34.8923 18.8068 35.0769L18.1163 36.9231C16.824 36.5538 15.4837 35.9778 14.1914 35.4222C14.0068 35.2375 13.6837 35.2505 13.4991 35.2505C11.2837 35.0658 9.23077 33.2308 9.23077 29.5385C9.23077 26.4 11.0658 23.8265 14.0197 23.8265ZM14.0197 25.8462C12.5428 25.8462 11.8265 27.5077 11.8265 29.5385C11.8265 31.7538 12.5428 33.2308 14.0197 33.2308C15.4966 33.2308 16.2683 31.5692 16.2683 29.5385C16.2683 27.5077 15.4966 25.8462 14.0197 25.8462Z" fill="#00A676"/>
</g>
<defs>
<clipPath id="clip0_244_1370">
<rect width="48" height="48" fill="white"/>
</clipPath>
</defs>
</svg>
