<svg width="64" height="64" viewBox="0 0 64 64" fill="none" xmlns="http://www.w3.org/2000/svg">
<path d="M17.3334 26.6666C16.5197 26.6666 15.8313 25.9319 16.1882 25.2007C16.2168 25.142 16.2465 25.084 16.2774 25.0266C16.5814 24.2052 17.056 23.4932 17.528 22.7759C17.9227 21.9999 18.6187 21.4746 19.1307 20.8106C19.6667 20.1652 20.3974 19.7359 20.976 19.1999C21.544 18.6399 22.288 18.3599 22.88 17.9652C23.4987 17.6106 24.0374 17.2186 24.6134 17.0319L26.0507 16.4399C26.7772 16.138 27.1734 15.3499 26.9824 14.5867L26.4189 12.3352C26.1988 11.4557 25.3108 10.918 24.4294 11.1306C23.92 11.2586 23.2987 11.4079 22.592 11.5866C21.8694 11.7199 21.0987 12.0852 20.24 12.4186C19.392 12.7972 18.4107 13.0532 17.4987 13.6612C16.5814 14.2426 15.5227 14.7279 14.5894 15.5066C13.6854 16.3092 12.5947 17.0052 11.7894 18.0266C10.9094 18.9812 10.04 19.9839 9.36536 21.1252C8.58402 22.2132 8.05335 23.4079 7.49335 24.5892C6.98669 25.7706 6.57869 26.9786 6.24535 28.1519C5.61335 30.5039 5.33069 32.7386 5.22135 34.6506C5.13069 36.5652 5.18402 38.1572 5.29602 39.3092C5.33602 39.8532 5.41069 40.3812 5.46402 40.7466L5.52529 41.1583C5.5282 41.1778 5.54717 41.1908 5.56645 41.1863C5.5849 41.1821 5.60327 41.1938 5.60729 41.2123C6.08541 43.4148 7.17419 45.4383 8.74926 47.0511C10.3324 48.672 12.342 49.8116 14.5457 50.3381C16.7495 50.8646 19.0572 50.7564 21.202 50.0261C23.3469 49.2958 25.2411 47.9732 26.6656 46.2113C28.0902 44.4494 28.9868 42.3202 29.2518 40.07C29.5168 37.8198 29.1393 35.5406 28.163 33.496C27.1868 31.4513 25.6516 29.7249 23.7351 28.5163C21.8186 27.3077 19.5991 26.6664 17.3334 26.6666ZM46.6667 26.6666C45.853 26.6666 45.1647 25.9319 45.5215 25.2007C45.5501 25.142 45.5798 25.084 45.6107 25.0266C45.9147 24.2052 46.3894 23.4932 46.8614 22.7759C47.256 21.9999 47.952 21.4746 48.464 20.8106C49 20.1652 49.7307 19.7359 50.3094 19.1999C50.8774 18.6399 51.6214 18.3599 52.2134 17.9652C52.832 17.6106 53.3707 17.2186 53.9467 17.0319L55.384 16.4399C56.1105 16.138 56.5067 15.3499 56.3157 14.5867L55.7523 12.3352C55.5321 11.4557 54.6441 10.918 53.7627 11.1306C53.2534 11.2586 52.632 11.4079 51.9254 11.5866C51.2027 11.7199 50.432 12.0852 49.5734 12.4186C48.728 12.7999 47.744 13.0532 46.832 13.6639C45.9147 14.2452 44.856 14.7306 43.9227 15.5092C43.0187 16.3119 41.928 17.0079 41.1227 18.0266C40.2427 18.9812 39.3734 19.9839 38.6987 21.1252C37.9174 22.2132 37.3867 23.4079 36.8267 24.5892C36.32 25.7706 35.912 26.9786 35.5787 28.1519C34.9467 30.5039 34.664 32.7386 34.5547 34.6506C34.464 36.5652 34.5174 38.1572 34.6294 39.3092C34.6694 39.8532 34.744 40.3812 34.7974 40.7466L34.8586 41.1583C34.8615 41.1778 34.8805 41.1908 34.8998 41.1863C34.9182 41.1821 34.9366 41.1938 34.9406 41.2123C35.4187 43.4148 36.5075 45.4383 38.0826 47.0511C39.6657 48.672 41.6753 49.8116 43.8791 50.3381C46.0828 50.8646 48.3905 50.7564 50.5354 50.0261C52.6802 49.2958 54.5744 47.9732 55.999 46.2113C57.4235 44.4494 58.3201 42.3202 58.5851 40.07C58.8501 37.8198 58.4726 35.5406 57.4964 33.496C56.5201 31.4513 54.9849 29.7249 53.0684 28.5163C51.1519 27.3077 48.9324 26.6664 46.6667 26.6666Z" fill="#00A676"/>
</svg>
