<svg width="48" height="48" viewBox="0 0 48 48" fill="none" xmlns="http://www.w3.org/2000/svg">
<g clip-path="url(#clip0_244_1349)">
<path d="M44.7067 25.0134L35.4667 20.7601V8.57345C35.4625 8.31777 35.3848 8.06871 35.243 7.85595C35.1011 7.64318 34.9011 7.4757 34.6667 7.37345L24.6667 2.77345C24.4912 2.69222 24.3001 2.65015 24.1067 2.65015C23.9133 2.65015 23.7222 2.69222 23.5467 2.77345L13.5467 7.37345C13.3153 7.48056 13.1194 7.65179 12.9823 7.86685C12.8453 8.0819 12.7728 8.33176 12.7734 8.58678V20.7734L3.57339 25.0134C3.34195 25.1206 3.14608 25.2918 3.00901 25.5068C2.87194 25.7219 2.79942 25.9718 2.80005 26.2268V39.2668C2.79942 39.5218 2.87194 39.7717 3.00901 39.9867C3.14608 40.2018 3.34195 40.373 3.57339 40.4801L13.5734 45.0801C13.7489 45.1613 13.94 45.2034 14.1334 45.2034C14.3268 45.2034 14.5179 45.1613 14.6934 45.0801L24.1334 40.7334L33.5734 45.0801C33.7489 45.1613 33.94 45.2034 34.1334 45.2034C34.3268 45.2034 34.5179 45.1613 34.6934 45.0801L44.6934 40.4801C44.9248 40.373 45.1207 40.2018 45.2578 39.9867C45.3948 39.7717 45.4673 39.5218 45.4667 39.2668V26.2268C45.4685 25.9732 45.398 25.7244 45.2634 25.5095C45.1288 25.2945 44.9357 25.1225 44.7067 25.0134ZM34.1467 29.3334L27.3334 26.2268L34.1467 23.0934L40.9601 26.2268L34.1467 29.3334ZM32.8134 20.7468L24.2267 24.7468V14.4934C24.3874 14.4863 24.5455 14.4502 24.6934 14.3868L32.8001 10.6668V20.7734L32.8134 20.7468ZM24.1334 5.44011L30.9467 8.57345L24.1334 11.7068L17.3334 8.57345L24.1334 5.44011ZM14.1334 23.0801L20.9467 26.2134L14.1334 29.3334L7.32005 26.2268L14.1334 23.0801ZM22.8001 38.4001L14.1334 42.4001V32.1468C14.3195 32.1357 14.5011 32.0857 14.6667 32.0001L22.7734 28.2668L22.8001 38.4001ZM42.8001 38.4001L34.1867 42.4001V32.1468C34.3546 32.1287 34.5174 32.0789 34.6667 32.0001L42.7734 28.2668L42.8001 38.4001Z" fill="#00A676"/>
</g>
<defs>
<clipPath id="clip0_244_1349">
<rect width="48" height="48" fill="white"/>
</clipPath>
</defs>
</svg>
