<svg width="84" height="84" viewBox="0 0 84 84" fill="none" xmlns="http://www.w3.org/2000/svg">
<path fill-rule="evenodd" clip-rule="evenodd" d="M42 7C34.5739 7 27.452 9.94999 22.201 15.201C16.95 20.452 14 27.5739 14 35C14 45.8432 21.0551 56.3649 28.7908 64.5304C32.5871 68.5376 36.3953 71.8181 39.2584 74.098C40.3239 74.9464 41.2546 75.6532 42 76.204C42.7454 75.6532 43.6761 74.9464 44.7416 74.098C47.6047 71.8181 51.4129 68.5376 55.2092 64.5304C62.9449 56.3649 70 45.8432 70 35C70 27.5739 67.05 20.452 61.799 15.201C56.548 9.94999 49.4261 7 42 7ZM42 80.5C40.0586 83.4122 40.0577 83.4116 40.0567 83.4109L40.0467 83.4042L40.0233 83.3886L39.9431 83.3343C39.875 83.288 39.7778 83.2216 39.6535 83.1355C39.4049 82.9633 39.0476 82.7124 38.5973 82.3872C37.6969 81.7369 36.4223 80.7878 34.8979 79.5739C31.8547 77.1506 27.7879 73.6499 23.7092 69.3446C15.6949 60.8851 7 48.6568 7 35C7 25.7174 10.6875 16.815 17.2513 10.2513C23.815 3.68749 32.7174 0 42 0C51.2826 0 60.185 3.68749 66.7487 10.2513C73.3125 16.815 77 25.7174 77 35C77 48.6568 68.3051 60.8851 60.2908 69.3446C56.2121 73.6499 52.1453 77.1506 49.1021 79.5739C47.5777 80.7878 46.3031 81.7369 45.4027 82.3872C44.9524 82.7124 44.5951 82.9633 44.3465 83.1355C44.2222 83.2216 44.125 83.288 44.0569 83.3343L43.9767 83.3886L43.9533 83.4042L43.946 83.4092C43.945 83.4098 43.9414 83.4122 42 80.5ZM42 80.5L43.9414 83.4122C42.7658 84.1959 41.2323 84.1947 40.0567 83.4109L42 80.5Z" fill="#00A676"/>
<path fill-rule="evenodd" clip-rule="evenodd" d="M42 28C38.134 28 35 31.134 35 35C35 38.866 38.134 42 42 42C45.866 42 49 38.866 49 35C49 31.134 45.866 28 42 28ZM28 35C28 27.268 34.268 21 42 21C49.732 21 56 27.268 56 35C56 42.732 49.732 49 42 49C34.268 49 28 42.732 28 35Z" fill="#00A676"/>
</svg>
